<?xml version="1.0" encoding="UTF-8" standalone="no"?>
<!DOCTYPE svg PUBLIC "-//W3C//DTD SVG 1.1//EN"
 "http://www.w3.org/Graphics/SVG/1.1/DTD/svg11.dtd">
<!-- Generated by graphviz version 2.47.3 (20210619.1520)
 -->
<!-- Title: dependencies Pages: 1 -->
<svg width="370pt" height="247pt"
 viewBox="0.00 0.00 370.00 246.80" xmlns="http://www.w3.org/2000/svg" xmlns:xlink="http://www.w3.org/1999/xlink">
<g id="graph0" class="graph" transform="scale(1 1) rotate(0) translate(4 242.8)">
<title>dependencies</title>
<polygon fill="white" stroke="transparent" points="-4,4 -4,-242.8 366,-242.8 366,4 -4,4"/>
<text text-anchor="middle" x="181" y="-8.2" font-family="sans-serif" font-size="14.00">dependencies</text>
<g id="clust1" class="cluster">
<title>cluster_CoreModule</title>
<polygon fill="none" stroke="black" stroke-dasharray="1,5" points="8,-32.8 8,-230.8 354,-230.8 354,-32.8 8,-32.8"/>
</g>
<g id="clust3" class="cluster">
<title>cluster_CoreModule_imports</title>
<polygon fill="none" stroke="black" points="22,-40.8 22,-92.8 340,-92.8 340,-40.8 22,-40.8"/>
</g>
<g id="clust4" class="cluster">
<title>cluster_CoreModule_exports</title>
<polygon fill="none" stroke="black" points="16,-170.8 16,-222.8 346,-222.8 346,-170.8 16,-170.8"/>
</g>
<!-- ConfigModule -->
<g id="node1" class="node">
<title>ConfigModule</title>
<polygon fill="#8dd3c7" stroke="black" points="332.44,-84.8 329.44,-88.8 308.44,-88.8 305.44,-84.8 233.56,-84.8 233.56,-48.8 332.44,-48.8 332.44,-84.8"/>
<text text-anchor="middle" x="283" y="-62.6" font-family="Times,serif" font-size="14.00">ConfigModule</text>
</g>
<!-- CoreModule -->
<g id="node4" class="node">
<title>CoreModule</title>
<polygon fill="#8dd3c7" stroke="black" points="216.26,-149.8 213.26,-153.8 192.26,-153.8 189.26,-149.8 129.74,-149.8 129.74,-113.8 216.26,-113.8 216.26,-149.8"/>
<text text-anchor="middle" x="173" y="-127.6" font-family="Times,serif" font-size="14.00">CoreModule</text>
</g>
<!-- ConfigModule&#45;&gt;CoreModule -->
<g id="edge1" class="edge">
<title>ConfigModule&#45;&gt;CoreModule</title>
<path fill="none" stroke="black" d="M300.16,-84.82C300.16,-102.17 300.16,-125.8 300.16,-125.8 300.16,-125.8 226.4,-125.8 226.4,-125.8"/>
<polygon fill="black" stroke="black" points="226.4,-122.3 216.4,-125.8 226.4,-129.3 226.4,-122.3"/>
</g>
<!-- DataModule -->
<g id="node2" class="node">
<title>DataModule</title>
<polygon fill="#8dd3c7" stroke="black" points="215.98,-84.8 212.98,-88.8 191.98,-88.8 188.98,-84.8 130.02,-84.8 130.02,-48.8 215.98,-48.8 215.98,-84.8"/>
<text text-anchor="middle" x="173" y="-62.6" font-family="Times,serif" font-size="14.00">DataModule</text>
</g>
<!-- DataModule&#45;&gt;CoreModule -->
<g id="edge2" class="edge">
<title>DataModule&#45;&gt;CoreModule</title>
<path fill="none" stroke="black" d="M173,-84.91C173,-84.91 173,-103.79 173,-103.79"/>
<polygon fill="black" stroke="black" points="169.5,-103.79 173,-113.79 176.5,-103.79 169.5,-103.79"/>
</g>
<!-- LogModule -->
<g id="node3" class="node">
<title>LogModule</title>
<polygon fill="#8dd3c7" stroke="black" points="112.1,-84.8 109.1,-88.8 88.1,-88.8 85.1,-84.8 29.9,-84.8 29.9,-48.8 112.1,-48.8 112.1,-84.8"/>
<text text-anchor="middle" x="71" y="-62.6" font-family="Times,serif" font-size="14.00">LogModule</text>
</g>
<!-- LogModule&#45;&gt;CoreModule -->
<g id="edge3" class="edge">
<title>LogModule&#45;&gt;CoreModule</title>
<path fill="none" stroke="black" d="M83.18,-84.82C83.18,-102.17 83.18,-125.8 83.18,-125.8 83.18,-125.8 119.67,-125.8 119.67,-125.8"/>
<polygon fill="black" stroke="black" points="119.67,-129.3 129.67,-125.8 119.67,-122.3 119.67,-129.3"/>
</g>
<!-- ConfigModule  -->
<g id="node5" class="node">
<title>ConfigModule </title>
<polygon fill="#fb8072" stroke="black" points="337.94,-214.8 236.06,-214.8 236.06,-178.8 337.94,-178.8 337.94,-214.8"/>
<text text-anchor="middle" x="287" y="-192.6" font-family="Times,serif" font-size="14.00">ConfigModule </text>
</g>
<!-- CoreModule&#45;&gt;ConfigModule  -->
<g id="edge4" class="edge">
<title>CoreModule&#45;&gt;ConfigModule </title>
<path fill="none" stroke="black" stroke-dasharray="5,2" d="M216.37,-137.8C241.45,-137.8 268.09,-137.8 268.09,-137.8 268.09,-137.8 268.09,-168.78 268.09,-168.78"/>
<polygon fill="black" stroke="black" points="264.59,-168.78 268.09,-178.78 271.59,-168.78 264.59,-168.78"/>
</g>
<!-- DataModule  -->
<g id="node6" class="node">
<title>DataModule </title>
<polygon fill="#fb8072" stroke="black" points="217.98,-214.8 128.02,-214.8 128.02,-178.8 217.98,-178.8 217.98,-214.8"/>
<text text-anchor="middle" x="173" y="-192.6" font-family="Times,serif" font-size="14.00">DataModule </text>
</g>
<!-- CoreModule&#45;&gt;DataModule  -->
<g id="edge5" class="edge">
<title>CoreModule&#45;&gt;DataModule </title>
<path fill="none" stroke="black" stroke-dasharray="5,2" d="M173,-149.91C173,-149.91 173,-168.79 173,-168.79"/>
<polygon fill="black" stroke="black" points="169.5,-168.79 173,-178.79 176.5,-168.79 169.5,-168.79"/>
</g>
<!-- LogModule  -->
<g id="node7" class="node">
<title>LogModule </title>
<polygon fill="#fb8072" stroke="black" points="109.6,-214.8 24.4,-214.8 24.4,-178.8 109.6,-178.8 109.6,-214.8"/>
<text text-anchor="middle" x="67" y="-192.6" font-family="Times,serif" font-size="14.00">LogModule </text>
</g>
<!-- CoreModule&#45;&gt;LogModule  -->
<g id="edge6" class="edge">
<title>CoreModule&#45;&gt;LogModule </title>
<path fill="none" stroke="black" stroke-dasharray="5,2" d="M129.64,-137.8C96.54,-137.8 56.57,-137.8 56.57,-137.8 56.57,-137.8 56.57,-168.78 56.57,-168.78"/>
<polygon fill="black" stroke="black" points="53.07,-168.78 56.57,-178.78 60.07,-168.78 53.07,-168.78"/>
</g>
</g>
</svg>
