<?xml version="1.0" encoding="UTF-8" standalone="no"?>
<!DOCTYPE svg PUBLIC "-//W3C//DTD SVG 1.1//EN"
 "http://www.w3.org/Graphics/SVG/1.1/DTD/svg11.dtd">
<!-- Generated by graphviz version 2.47.3 (20210619.1520)
 -->
<!-- Title: dependencies Pages: 1 -->
<svg width="454pt" height="174pt"
 viewBox="0.00 0.00 454.00 173.80" xmlns="http://www.w3.org/2000/svg" xmlns:xlink="http://www.w3.org/1999/xlink">
<g id="graph0" class="graph" transform="scale(1 1) rotate(0) translate(4 169.8)">
<title>dependencies</title>
<polygon fill="white" stroke="transparent" points="-4,4 -4,-169.8 450,-169.8 450,4 -4,4"/>
<text text-anchor="middle" x="223" y="-8.2" font-family="sans-serif" font-size="14.00">dependencies</text>
<g id="clust1" class="cluster">
<title>cluster_UserModule</title>
<polygon fill="none" stroke="black" stroke-dasharray="1,5" points="8,-32.8 8,-157.8 438,-157.8 438,-32.8 8,-32.8"/>
</g>
<g id="clust3" class="cluster">
<title>cluster_UserModule_imports</title>
<polygon fill="none" stroke="black" points="328,-40.8 328,-92.8 430,-92.8 430,-40.8 328,-40.8"/>
</g>
<g id="clust6" class="cluster">
<title>cluster_UserModule_providers</title>
<polygon fill="none" stroke="black" points="16,-40.8 16,-92.8 320,-92.8 320,-40.8 16,-40.8"/>
</g>
<!-- CoreModule -->
<g id="node1" class="node">
<title>CoreModule</title>
<polygon fill="#8dd3c7" stroke="black" points="422.26,-84.8 419.26,-88.8 398.26,-88.8 395.26,-84.8 335.74,-84.8 335.74,-48.8 422.26,-48.8 422.26,-84.8"/>
<text text-anchor="middle" x="379" y="-62.6" font-family="Times,serif" font-size="14.00">CoreModule</text>
</g>
<!-- UserModule -->
<g id="node2" class="node">
<title>UserModule</title>
<polygon fill="#8dd3c7" stroke="black" points="277.98,-149.8 274.98,-153.8 253.98,-153.8 250.98,-149.8 192.02,-149.8 192.02,-113.8 277.98,-113.8 277.98,-149.8"/>
<text text-anchor="middle" x="235" y="-127.6" font-family="Times,serif" font-size="14.00">UserModule</text>
</g>
<!-- CoreModule&#45;&gt;UserModule -->
<g id="edge1" class="edge">
<title>CoreModule&#45;&gt;UserModule</title>
<path fill="none" stroke="black" d="M379,-84.91C379,-104.14 379,-131.8 379,-131.8 379,-131.8 288.2,-131.8 288.2,-131.8"/>
<polygon fill="black" stroke="black" points="288.2,-128.3 278.2,-131.8 288.2,-135.3 288.2,-128.3"/>
</g>
<!-- PasswordService -->
<g id="node3" class="node">
<title>PasswordService</title>
<ellipse fill="#fdb462" stroke="black" cx="235" cy="-66.8" rx="77" ry="18"/>
<text text-anchor="middle" x="235" y="-62.6" font-family="Times,serif" font-size="14.00">PasswordService</text>
</g>
<!-- PasswordService&#45;&gt;UserModule -->
<g id="edge2" class="edge">
<title>PasswordService&#45;&gt;UserModule</title>
<path fill="none" stroke="black" d="M235,-84.91C235,-84.91 235,-103.79 235,-103.79"/>
<polygon fill="black" stroke="black" points="231.5,-103.79 235,-113.79 238.5,-103.79 231.5,-103.79"/>
</g>
<!-- UserService -->
<g id="node4" class="node">
<title>UserService</title>
<ellipse fill="#fdb462" stroke="black" cx="82" cy="-66.8" rx="58.44" ry="18"/>
<text text-anchor="middle" x="82" y="-62.6" font-family="Times,serif" font-size="14.00">UserService</text>
</g>
<!-- UserService&#45;&gt;UserModule -->
<g id="edge3" class="edge">
<title>UserService&#45;&gt;UserModule</title>
<path fill="none" stroke="black" d="M82,-84.91C82,-104.14 82,-131.8 82,-131.8 82,-131.8 181.97,-131.8 181.97,-131.8"/>
<polygon fill="black" stroke="black" points="181.97,-135.3 191.97,-131.8 181.97,-128.3 181.97,-135.3"/>
</g>
</g>
</svg>
